<svg id="Layer_1" data-name="Layer 1" xmlns="http://www.w3.org/2000/svg" xmlns:xlink="http://www.w3.org/1999/xlink" viewBox="0 0 175.95 84.58"><defs><linearGradient id="Gradiente_sem_nome_104" x1="173.58" y1="27.97" x2="174.08" y2="27.97" gradientUnits="userSpaceOnUse"><stop offset="0.1" stop-color="violet"/><stop offset="0.1" stop-color="#e67ce9"/><stop offset="0.11" stop-color="#c25fd1"/><stop offset="0.12" stop-color="#a245bb"/><stop offset="0.13" stop-color="#862fa9"/><stop offset="0.14" stop-color="#701e9b"/><stop offset="0.15" stop-color="#5f1090"/><stop offset="0.17" stop-color="#540788"/><stop offset="0.19" stop-color="#4d0183"/><stop offset="0.25" stop-color="indigo"/><stop offset="0.26" stop-color="#3800a1"/><stop offset="0.27" stop-color="#2700be"/><stop offset="0.28" stop-color="#1900d6"/><stop offset="0.3" stop-color="#0e00e8"/><stop offset="0.32" stop-color="#0600f5"/><stop offset="0.34" stop-color="#0100fd"/><stop offset="0.39" stop-color="blue"/><stop offset="0.39" stop-color="#0005f6"/><stop offset="0.4" stop-color="#001cc8"/><stop offset="0.4" stop-color="#00319d"/><stop offset="0.41" stop-color="#047"/><stop offset="0.42" stop-color="#005557"/><stop offset="0.43" stop-color="#00623b"/><stop offset="0.44" stop-color="#006d25"/><stop offset="0.45" stop-color="#007614"/><stop offset="0.47" stop-color="#007c09"/><stop offset="0.49" stop-color="#007f02"/><stop offset="0.55" stop-color="green"/><stop offset="0.55" stop-color="#098500"/><stop offset="0.55" stop-color="#379b00"/><stop offset="0.56" stop-color="#62b100"/><stop offset="0.57" stop-color="#88c400"/><stop offset="0.57" stop-color="#a8d400"/><stop offset="0.58" stop-color="#c4e100"/><stop offset="0.59" stop-color="#daec00"/><stop offset="0.6" stop-color="#ebf500"/><stop offset="0.62" stop-color="#f6fb00"/><stop offset="0.63" stop-color="#fdfe00"/><stop offset="0.69" stop-color="#ff0"/><stop offset="0.69" stop-color="#fffc00"/><stop offset="0.71" stop-color="#fd0"/><stop offset="0.74" stop-color="#ffc400"/><stop offset="0.76" stop-color="#ffb300"/><stop offset="0.79" stop-color="#ffa800"/><stop offset="0.82" stop-color="orange"/><stop offset="0.84" stop-color="#ff7f00"/><stop offset="0.87" stop-color="#ff5200"/><stop offset="0.89" stop-color="#ff2e00"/><stop offset="0.91" stop-color="#ff1500"/><stop offset="0.93" stop-color="#ff0500"/><stop offset="0.94" stop-color="red"/></linearGradient><linearGradient id="Gradiente_sem_nome_104-2" x1="25.35" y1="27.97" x2="156.36" y2="27.97" xlink:href="#Gradiente_sem_nome_104"/><linearGradient id="Gradiente_sem_nome_104-3" x1="173.58" y1="58.12" x2="174.08" y2="58.12" xlink:href="#Gradiente_sem_nome_104"/><linearGradient id="Gradiente_sem_nome_104-4" x1="25.35" y1="58.12" x2="156.36" y2="58.12" xlink:href="#Gradiente_sem_nome_104"/></defs><title>logo-white</title><line x1="33.85" y1="27.97" x2="147.86" y2="27.97" style="stroke-linecap:round;stroke-linejoin:round;stroke-width:17px;fill:url(#Gradiente_sem_nome_104);stroke:url(#Gradiente_sem_nome_104-2)"/><line x1="33.85" y1="58.12" x2="147.86" y2="58.12" style="stroke-linecap:round;stroke-linejoin:round;stroke-width:17px;fill:url(#Gradiente_sem_nome_104-3);stroke:url(#Gradiente_sem_nome_104-4)"/><path d="M229.69,125.11l1.58-3.53a13.59,13.59,0,0,0,8.08,2.69c3.82,0,5.43-1.36,5.43-3.18,0-5.29-14.56-1.82-14.56-10.92,0-4,3.15-7.32,9.87-7.32a15.46,15.46,0,0,1,8.15,2.17l-1.43,3.54a13.59,13.59,0,0,0-6.76-1.93c-3.78,0-5.32,1.47-5.32,3.33,0,5.21,14.53,1.82,14.53,10.81,0,3.92-3.19,7.28-9.91,7.28C235.54,128.05,231.72,126.86,229.69,125.11Z" transform="translate(-191.62 -101.73)" style="fill:#fff"/><path d="M271.76,117V127.7h-4.37V117.55c0-3.32-1.65-4.93-4.45-4.93-3.11,0-5.21,1.89-5.21,5.63v9.45h-4.38v-26h4.38v9.45A8.32,8.32,0,0,1,264,108.8C268.44,108.8,271.76,111.36,271.76,117Z" transform="translate(-191.62 -101.73)" style="fill:#fff"/><path d="M293,116.75v11h-4.13v-2.27c-1,1.61-3.08,2.52-5.88,2.52-4.27,0-7-2.35-7-5.6s2.1-5.57,7.77-5.57h4.83v-.28c0-2.55-1.54-4.06-4.66-4.06a9.22,9.22,0,0,0-5.67,1.86l-1.71-3.19a13.13,13.13,0,0,1,7.91-2.31C289.86,108.8,293,111.36,293,116.75Zm-4.37,5.11v-2.17h-4.52c-3,0-3.78,1.12-3.78,2.48,0,1.58,1.33,2.59,3.57,2.59A4.77,4.77,0,0,0,288.6,121.86Z" transform="translate(-191.62 -101.73)" style="fill:#fff"/><path d="M309.39,108.8V113a5.64,5.64,0,0,0-1-.11c-3.32,0-5.42,2-5.42,5.78v9.06h-4.38V109h4.17v2.73C304,109.78,306.27,108.8,309.39,108.8Z" transform="translate(-191.62 -101.73)" style="fill:#fff"/><path d="M330.42,119.76H315.76c.52,2.73,2.8,4.48,6.05,4.48a6.73,6.73,0,0,0,5.08-2l2.34,2.69c-1.68,2-4.3,3-7.52,3-6.27,0-10.33-4-10.33-9.59A9.3,9.3,0,0,1,321,108.8c5.46,0,9.45,3.82,9.45,9.66C330.49,118.81,330.46,119.34,330.42,119.76Zm-14.7-2.91h10.61A5.1,5.1,0,0,0,321,112.3,5.17,5.17,0,0,0,315.72,116.85Z" transform="translate(-191.62 -101.73)" style="fill:#fff"/><path d="M213.39,154.77v24.51h-4.55v-10.5H196.17v10.5h-4.55V154.77h4.55v10.12h12.67V154.77Z" transform="translate(-191.62 -101.73)" style="fill:#fff"/><path d="M237.64,160.58v18.7h-4.16V176.9a7.65,7.65,0,0,1-6,2.62c-4.8,0-8.05-2.62-8.05-8.26V160.58h4.37v10.09c0,3.39,1.61,5,4.38,5,3,0,5.11-1.89,5.11-5.64v-9.45Z" transform="translate(-191.62 -101.73)" style="fill:#fff"/><path d="M274.64,168.57v10.71h-4.38V169.13c0-3.33-1.54-4.94-4.2-4.94-2.87,0-4.86,1.89-4.86,5.6v9.49h-4.38V169.13c0-3.33-1.54-4.94-4.2-4.94-2.9,0-4.86,1.89-4.86,5.6v9.49h-4.38v-18.7h4.17V163a7.74,7.74,0,0,1,6.12-2.59,7,7,0,0,1,6.3,3.12,8.73,8.73,0,0,1,7-3.12C271.49,160.37,274.64,162.93,274.64,168.57Z" transform="translate(-191.62 -101.73)" style="fill:#fff"/><path d="M295.88,168.32v11h-4.13V177c-1.05,1.61-3.08,2.52-5.88,2.52-4.27,0-7-2.34-7-5.6,0-3.11,2.1-5.56,7.77-5.56h4.83v-.28c0-2.56-1.54-4.07-4.66-4.07a9.22,9.22,0,0,0-5.67,1.86l-1.71-3.19a13.13,13.13,0,0,1,7.91-2.31C292.77,160.37,295.88,162.93,295.88,168.32Zm-4.37,5.11v-2.17H287c-3,0-3.78,1.12-3.78,2.49,0,1.57,1.33,2.59,3.57,2.59A4.77,4.77,0,0,0,291.51,173.43Z" transform="translate(-191.62 -101.73)" style="fill:#fff"/><path d="M319.89,168.57v10.71h-4.37V169.13c0-3.33-1.65-4.94-4.45-4.94-3.12,0-5.22,1.89-5.22,5.64v9.45h-4.37v-18.7h4.16V163a8.13,8.13,0,0,1,6.45-2.63C316.57,160.37,319.89,162.93,319.89,168.57Z" transform="translate(-191.62 -101.73)" style="fill:#fff"/><path d="M324.86,154.88a2.67,2.67,0,0,1,2.8-2.63,2.61,2.61,0,0,1,2.8,2.52,2.8,2.8,0,0,1-5.6.11Zm.59,5.7h4.38v18.7h-4.38Z" transform="translate(-191.62 -101.73)" style="fill:#fff"/><path d="M346.81,178.26a6.89,6.89,0,0,1-4.21,1.26c-4.09,0-6.44-2.17-6.44-6.3v-9h-3.08v-3.5h3.08v-4.27h4.38v4.27h5v3.5h-5v8.9c0,1.82.91,2.8,2.59,2.8a4,4,0,0,0,2.45-.77Z" transform="translate(-191.62 -101.73)" style="fill:#fff"/><path d="M367.56,160.58l-8.75,20.2c-1.71,4.24-4.1,5.53-7.21,5.53a7.76,7.76,0,0,1-5-1.71l1.75-3.22a4.76,4.76,0,0,0,3.22,1.29c1.54,0,2.45-.73,3.29-2.59l.32-.73L347,160.58h4.55l5.88,13.83,5.92-13.83Z" transform="translate(-191.62 -101.73)" style="fill:#fff"/></svg>