<svg id="Camada_1" data-name="Camada 1" xmlns="http://www.w3.org/2000/svg" xmlns:xlink="http://www.w3.org/1999/xlink" viewBox="0 0 175.95 84.58">
<defs><linearGradient id="Gradiente_sem_nome_104" x1="173.58" y1="27.97" x2="174.08" y2="27.97" gradientUnits="userSpaceOnUse"><stop offset="0.1" stop-color="violet"/><stop offset="0.1" stop-color="#e67ce9"/><stop offset="0.11" stop-color="#c25fd1"/><stop offset="0.12" stop-color="#a245bb"/><stop offset="0.13" stop-color="#862fa9"/><stop offset="0.14" stop-color="#701e9b"/><stop offset="0.15" stop-color="#5f1090"/><stop offset="0.17" stop-color="#540788"/><stop offset="0.19" stop-color="#4d0183"/><stop offset="0.25" stop-color="indigo"/><stop offset="0.26" stop-color="#3800a1"/><stop offset="0.27" stop-color="#2700be"/><stop offset="0.28" stop-color="#1900d6"/><stop offset="0.3" stop-color="#0e00e8"/><stop offset="0.32" stop-color="#0600f5"/><stop offset="0.34" stop-color="#0100fd"/><stop offset="0.39" stop-color="blue"/><stop offset="0.39" stop-color="#0005f6"/><stop offset="0.4" stop-color="#001cc8"/><stop offset="0.4" stop-color="#00319d"/><stop offset="0.41" stop-color="#047"/><stop offset="0.42" stop-color="#005557"/><stop offset="0.43" stop-color="#00623b"/><stop offset="0.44" stop-color="#006d25"/><stop offset="0.45" stop-color="#007614"/><stop offset="0.47" stop-color="#007c09"/><stop offset="0.49" stop-color="#007f02"/><stop offset="0.55" stop-color="green"/><stop offset="0.55" stop-color="#098500"/><stop offset="0.55" stop-color="#379b00"/><stop offset="0.56" stop-color="#62b100"/><stop offset="0.57" stop-color="#88c400"/><stop offset="0.57" stop-color="#a8d400"/><stop offset="0.58" stop-color="#c4e100"/><stop offset="0.59" stop-color="#daec00"/><stop offset="0.6" stop-color="#ebf500"/><stop offset="0.62" stop-color="#f6fb00"/><stop offset="0.63" stop-color="#fdfe00"/><stop offset="0.69" stop-color="#ff0"/><stop offset="0.69" stop-color="#fffc00"/><stop offset="0.71" stop-color="#fd0"/><stop offset="0.74" stop-color="#ffc400"/><stop offset="0.76" stop-color="#ffb300"/><stop offset="0.79" stop-color="#ffa800"/><stop offset="0.82" stop-color="orange"/><stop offset="0.84" stop-color="#ff7f00"/><stop offset="0.87" stop-color="#ff5200"/><stop offset="0.89" stop-color="#ff2e00"/><stop offset="0.91" stop-color="#ff1500"/><stop offset="0.93" stop-color="#ff0500"/><stop offset="0.94" stop-color="red"/></linearGradient><linearGradient id="Gradiente_sem_nome_104-2" x1="25.35" y1="27.97" x2="156.36" y2="27.97" xlink:href="#Gradiente_sem_nome_104"/><linearGradient id="Gradiente_sem_nome_104-3" x1="173.58" y1="58.12" x2="174.08" y2="58.12" xlink:href="#Gradiente_sem_nome_104"/><linearGradient id="Gradiente_sem_nome_104-4" x1="25.35" y1="58.12" x2="156.36" y2="58.12" xlink:href="#Gradiente_sem_nome_104"/></defs><title>logo</title><line x1="33.85" y1="27.97" x2="147.86" y2="27.97" style="stroke-linecap:round;stroke-linejoin:round;stroke-width:17px;fill:url(#Gradiente_sem_nome_104);stroke:url(#Gradiente_sem_nome_104-2)"/><line x1="33.85" y1="58.12" x2="147.86" y2="58.12" style="stroke-linecap:round;stroke-linejoin:round;stroke-width:17px;fill:url(#Gradiente_sem_nome_104-3);stroke:url(#Gradiente_sem_nome_104-4)"/><path d="M212.93,112l1.58-3.53a13.59,13.59,0,0,0,8.08,2.69c3.82,0,5.43-1.36,5.43-3.18,0-5.29-14.56-1.82-14.56-10.92,0-4,3.15-7.32,9.87-7.32a15.46,15.46,0,0,1,8.15,2.17l-1.43,3.53a13.68,13.68,0,0,0-6.76-1.92c-3.78,0-5.32,1.47-5.32,3.32,0,5.22,14.53,1.83,14.53,10.82,0,3.92-3.19,7.28-9.91,7.28C218.78,114.92,215,113.73,212.93,112Z" transform="translate(-174.85 -88.6)"/><path d="M255,103.86v10.71h-4.37V104.42c0-3.32-1.65-4.93-4.45-4.93-3.11,0-5.21,1.89-5.21,5.63v9.45h-4.38v-26H241v9.45a8.32,8.32,0,0,1,6.23-2.38C251.68,95.67,255,98.23,255,103.86Z" transform="translate(-174.85 -88.6)"/><path d="M276.21,103.62v10.95h-4.13V112.3c-1.05,1.61-3.08,2.52-5.88,2.52-4.27,0-7-2.35-7-5.6s2.1-5.57,7.77-5.57h4.83v-.28c0-2.55-1.54-4.06-4.66-4.06a9.22,9.22,0,0,0-5.67,1.86L259.8,98a13.13,13.13,0,0,1,7.91-2.31C273.1,95.67,276.21,98.23,276.21,103.62Zm-4.37,5.11v-2.17h-4.52c-3,0-3.78,1.12-3.78,2.48,0,1.58,1.33,2.59,3.57,2.59A4.77,4.77,0,0,0,271.84,108.73Z" transform="translate(-174.85 -88.6)"/><path d="M292.63,95.67v4.17a5.64,5.64,0,0,0-1-.11c-3.32,0-5.42,2-5.42,5.78v9.06h-4.38V95.88H286v2.73C287.24,96.65,289.51,95.67,292.63,95.67Z" transform="translate(-174.85 -88.6)"/><path d="M313.66,106.63H299c.52,2.73,2.8,4.48,6.05,4.48a6.73,6.73,0,0,0,5.08-2l2.34,2.69c-1.68,2-4.3,3-7.52,3-6.27,0-10.33-4-10.33-9.59a9.3,9.3,0,0,1,9.66-9.56c5.46,0,9.45,3.82,9.45,9.66C313.73,105.68,313.7,106.21,313.66,106.63ZM299,103.72h10.61a5.1,5.1,0,0,0-5.29-4.55A5.17,5.17,0,0,0,299,103.72Z" transform="translate(-174.85 -88.6)"/><path d="M196.63,141.64v24.5h-4.55v-10.5H179.4v10.5h-4.55v-24.5h4.55v10.12h12.68V141.64Z" transform="translate(-174.85 -88.6)"/><path d="M220.88,147.45v18.69h-4.17v-2.38a7.62,7.62,0,0,1-6,2.63c-4.79,0-8.05-2.63-8.05-8.26V147.45H207v10.08c0,3.4,1.61,5,4.37,5,3.05,0,5.11-1.89,5.11-5.64v-9.45Z" transform="translate(-174.85 -88.6)"/><path d="M257.88,155.43v10.71H253.5V156c0-3.32-1.54-4.93-4.2-4.93-2.87,0-4.86,1.89-4.86,5.6v9.48h-4.38V156c0-3.32-1.54-4.93-4.2-4.93-2.91,0-4.87,1.89-4.87,5.6v9.48h-4.37V147.45h4.16v2.38a7.74,7.74,0,0,1,6.13-2.59,7,7,0,0,1,6.3,3.12,8.73,8.73,0,0,1,7-3.12C254.73,147.24,257.88,149.8,257.88,155.43Z" transform="translate(-174.85 -88.6)"/><path d="M279.12,155.19v10.95H275v-2.27c-1.05,1.61-3.08,2.52-5.88,2.52-4.27,0-7-2.35-7-5.6s2.1-5.57,7.77-5.57h4.83v-.28c0-2.55-1.54-4.06-4.65-4.06a9.22,9.22,0,0,0-5.67,1.86l-1.72-3.19a13.15,13.15,0,0,1,7.91-2.31C276,147.24,279.12,149.8,279.12,155.19Zm-4.38,5.11v-2.17h-4.51c-3,0-3.78,1.12-3.78,2.48,0,1.58,1.33,2.59,3.57,2.59A4.76,4.76,0,0,0,274.74,160.3Z" transform="translate(-174.85 -88.6)"/><path d="M303.13,155.43v10.71h-4.38V156c0-3.32-1.64-4.93-4.44-4.93-3.12,0-5.22,1.89-5.22,5.63v9.45h-4.37V147.45h4.16v2.42a8.12,8.12,0,0,1,6.44-2.63C299.8,147.24,303.13,149.8,303.13,155.43Z" transform="translate(-174.85 -88.6)"/><path d="M308.1,141.75a2.67,2.67,0,0,1,2.8-2.63,2.61,2.61,0,0,1,2.8,2.52,2.69,2.69,0,0,1-2.8,2.73A2.66,2.66,0,0,1,308.1,141.75Zm.59,5.7h4.38v18.69h-4.38Z" transform="translate(-174.85 -88.6)"/><path d="M330,165.13a6.86,6.86,0,0,1-4.2,1.26c-4.09,0-6.44-2.17-6.44-6.3v-9h-3.08v-3.5h3.08v-4.27h4.38v4.27h5v3.5h-5V160c0,1.82.91,2.8,2.59,2.8a3.91,3.91,0,0,0,2.45-.77Z" transform="translate(-174.85 -88.6)"/><path d="M350.8,147.45l-8.75,20.2c-1.72,4.23-4.1,5.53-7.21,5.53a7.71,7.71,0,0,1-5-1.72l1.75-3.22a4.72,4.72,0,0,0,3.22,1.3c1.54,0,2.45-.74,3.29-2.59l.32-.74-8.16-18.76h4.55l5.88,13.83,5.92-13.83Z" transform="translate(-174.85 -88.6)"/></svg>